<svg width="14" height="12" viewBox="0 0 14 12" fill="none" xmlns="http://www.w3.org/2000/svg">
<g clip-path="url(#clip0_281_217)">
<path fill-rule="evenodd" clip-rule="evenodd" d="M8.72694 0.571702C7.5266 0.541122 6.32569 0.541122 5.12535 0.571702H5.09273C4.32262 0.568667 3.55319 0.617934 2.78976 0.719163C2.19251 0.794575 1.63591 1.06191 1.2037 1.48093C0.790276 1.90866 0.526171 2.45856 0.450768 3.04864C0.353439 3.79321 0.308027 4.54366 0.314859 5.29453V5.33055C0.301948 5.94214 0.301948 6.55373 0.314859 7.1694V7.20541C0.308031 7.95629 0.353444 8.70673 0.450768 9.45131C0.526171 10.0414 0.790276 10.5913 1.2037 11.019C1.63619 11.4373 2.19276 11.7039 2.78976 11.7787C3.55296 11.8801 4.32216 11.9296 5.09206 11.9269H5.12807C6.33154 11.9568 7.52347 11.9568 8.72966 11.9269H8.76227C9.53217 11.9296 10.3014 11.8801 11.0646 11.7787C11.6611 11.7149 12.218 11.4494 12.6433 11.0263C13.0686 10.6031 13.3368 10.0475 13.4036 9.45131C13.5009 8.70673 13.5463 7.95629 13.5395 7.20541V7.1694C13.5524 6.55781 13.5524 5.94622 13.5395 5.33055V5.29453C13.5463 4.54366 13.5009 3.79321 13.4036 3.04864C13.3282 2.45856 13.0641 1.90866 12.6506 1.48093C12.2186 1.06204 11.6623 0.794716 11.0653 0.719163C10.3018 0.618384 9.53235 0.569571 8.76227 0.573061L8.72694 0.571702ZM4.08089 3.69557C3.97537 3.63321 3.8494 3.61532 3.73069 3.64584C3.61198 3.67637 3.51026 3.75279 3.4479 3.85832C3.38554 3.96384 3.36765 4.08981 3.39818 4.20852C3.4287 4.32723 3.50513 4.42895 3.61065 4.49131L5.42367 5.56363C5.86744 5.87415 6.38723 6.05829 6.9275 6.0964C7.46785 6.05809 7.98764 5.87371 8.43134 5.56295L10.2444 4.49063C10.3499 4.42828 10.4263 4.32655 10.4568 4.20784C10.4874 4.08913 10.4695 3.96316 10.4071 3.85764C10.3762 3.80539 10.3354 3.75973 10.2868 3.72328C10.2383 3.68682 10.1831 3.66028 10.1243 3.64516C10.0056 3.61464 9.87964 3.63253 9.77412 3.69489L7.96041 4.76721C7.65805 4.99175 7.30172 5.13241 6.9275 5.17493C6.55329 5.13241 6.19696 4.99175 5.8946 4.76721L4.08089 3.69557Z" fill="#7E6969"/>
</g>
<defs>
<clipPath id="clip0_281_217">
<rect width="13.2511" height="11.4021" fill="white" transform="translate(0.301758 0.549194)"/>
</clipPath>
</defs>
</svg>
