<svg width="13" height="15" viewBox="0 0 13 15" fill="none" xmlns="http://www.w3.org/2000/svg">
<g clip-path="url(#clip0_281_200)">
<path fill-rule="evenodd" clip-rule="evenodd" d="M6.26681 1.69039C5.63602 1.69039 5.03106 1.94097 4.58503 2.38701C4.13899 2.83304 3.88841 3.438 3.88841 4.06879V5.12888C4.64814 5.1017 5.42758 5.08811 6.26681 5.08811C7.10605 5.08811 7.88549 5.1017 8.64522 5.12888V4.06879C8.64522 3.438 8.39464 2.83304 7.9486 2.38701C7.50256 1.94097 6.8976 1.69039 6.26681 1.69039ZM2.52932 4.06879V5.27634C1.99933 5.4425 1.52768 5.75627 1.16963 6.18087C0.811577 6.60548 0.581957 7.12334 0.507675 7.67377C0.393048 8.44905 0.330616 9.23116 0.320801 10.0148C0.330616 10.7985 0.393048 11.5806 0.507675 12.3558C0.596058 13.0266 0.916113 13.6454 1.41247 14.1051C1.90884 14.5649 2.55028 14.8367 3.22585 14.8735C4.19624 14.9184 5.18226 14.9415 6.26681 14.9415C7.35137 14.9415 8.3367 14.9184 9.30777 14.8735C9.98334 14.8367 10.6248 14.5649 11.1212 14.1051C11.6175 13.6454 11.9376 13.0266 12.026 12.3558C12.1406 11.5806 12.203 10.7984 12.2128 10.0148C12.2032 9.23117 12.141 8.44907 12.0266 7.67377C11.9523 7.12326 11.7226 6.60534 11.3644 6.18073C11.0062 5.75611 10.5344 5.44239 10.0043 5.27634V4.06879C10.0043 3.07755 9.61054 2.1269 8.90962 1.42599C8.2087 0.725069 7.25806 0.331299 6.26681 0.331299C5.27557 0.331299 4.32492 0.725069 3.62401 1.42599C2.92309 2.1269 2.52932 3.07755 2.52932 4.06879ZM9.66453 10.008C9.66453 9.82778 9.59294 9.65494 9.4655 9.5275C9.33806 9.40006 9.16522 9.32846 8.98499 9.32846C8.80476 9.32846 8.63192 9.40006 8.50448 9.5275C8.37704 9.65494 8.30545 9.82778 8.30545 10.008V10.0148C8.30545 10.195 8.37704 10.3679 8.50448 10.4953C8.63192 10.6228 8.80476 10.6943 8.98499 10.6943C9.16522 10.6943 9.33806 10.6228 9.4655 10.4953C9.59294 10.3679 9.66453 10.195 9.66453 10.0148V10.008ZM6.26681 9.32846C6.44704 9.32846 6.61988 9.40006 6.74732 9.5275C6.87476 9.65494 6.94636 9.82778 6.94636 10.008V10.0148C6.94636 10.195 6.87476 10.3679 6.74732 10.4953C6.61988 10.6228 6.44704 10.6943 6.26681 10.6943C6.08659 10.6943 5.91374 10.6228 5.7863 10.4953C5.65886 10.3679 5.58727 10.195 5.58727 10.0148V10.008C5.58727 9.82778 5.65886 9.65494 5.7863 9.5275C5.91374 9.40006 6.08659 9.32846 6.26681 9.32846ZM4.22818 10.008C4.22818 9.82778 4.15659 9.65494 4.02915 9.5275C3.90171 9.40006 3.72886 9.32846 3.54864 9.32846C3.36841 9.32846 3.19556 9.40006 3.06813 9.5275C2.94069 9.65494 2.86909 9.82778 2.86909 10.008V10.0148C2.86909 10.195 2.94069 10.3679 3.06813 10.4953C3.19556 10.6228 3.36841 10.6943 3.54864 10.6943C3.72886 10.6943 3.90171 10.6228 4.02915 10.4953C4.15659 10.3679 4.22818 10.195 4.22818 10.0148V10.008Z" fill="#7E6969"/>
</g>
<defs>
<clipPath id="clip0_281_200">
<rect width="11.892" height="14.6102" fill="white" transform="translate(0.320801 0.331299)"/>
</clipPath>
</defs>
</svg>
